<svg id="svg" version="1.1" xmlns="http://www.w3.org/2000/svg" xmlns:xlink="http://www.w3.org/1999/xlink" width="400" height="400" viewBox="0, 0, 400,400"><g id="svgg"><path id="path0" d="M149.600 126.753 C 149.600 126.947,148.250 127.233,146.600 127.387 C 144.950 127.542,143.600 127.833,143.600 128.034 C 143.600 128.235,143.208 128.400,142.728 128.400 C 141.808 128.400,139.472 129.060,138.305 129.649 C 137.923 129.842,137.259 130.000,136.829 130.000 C 136.399 130.000,135.936 130.180,135.800 130.400 C 135.664 130.620,135.124 130.800,134.600 130.800 C 134.076 130.800,133.536 130.980,133.400 131.200 C 133.264 131.420,132.803 131.600,132.376 131.600 C 131.949 131.600,131.600 131.780,131.600 132.000 C 131.600 132.220,131.161 132.400,130.624 132.400 C 130.087 132.400,129.536 132.580,129.400 132.800 C 129.264 133.020,128.803 133.200,128.376 133.200 C 127.949 133.200,127.600 133.380,127.600 133.600 C 127.600 133.820,127.150 134.000,126.600 134.000 C 126.050 134.000,125.600 134.180,125.600 134.400 C 125.600 134.620,125.240 134.800,124.800 134.800 C 124.360 134.800,124.000 134.980,124.000 135.200 C 124.000 135.420,123.640 135.600,123.200 135.600 C 122.760 135.600,122.400 135.780,122.400 136.000 C 122.400 136.220,122.040 136.400,121.600 136.400 C 121.160 136.400,120.800 136.580,120.800 136.800 C 120.800 137.020,120.440 137.200,120.000 137.200 C 119.560 137.200,119.200 137.380,119.200 137.600 C 119.200 137.820,118.840 138.000,118.400 138.000 C 117.960 138.000,117.600 138.180,117.600 138.400 C 117.600 138.620,117.280 138.800,116.888 138.800 C 116.497 138.800,115.917 139.160,115.600 139.600 C 115.283 140.040,114.703 140.400,114.312 140.400 C 113.920 140.400,113.600 140.580,113.600 140.800 C 113.600 141.020,113.364 141.200,113.075 141.200 C 112.787 141.200,112.164 141.560,111.692 142.000 C 111.220 142.440,110.646 142.800,110.417 142.800 C 110.188 142.800,110.000 142.962,110.000 143.161 C 110.000 143.359,109.505 143.698,108.900 143.914 C 108.295 144.129,107.367 144.687,106.839 145.153 C 106.310 145.619,105.733 146.000,105.557 146.000 C 105.381 146.000,104.786 146.450,104.236 147.000 C 103.686 147.550,103.030 148.000,102.779 148.000 C 102.527 148.000,101.817 148.540,101.200 149.200 C 100.583 149.860,99.895 150.400,99.670 150.400 C 99.138 150.400,93.600 155.871,93.600 156.397 C 93.600 156.619,93.325 156.800,92.989 156.800 C 92.438 156.800,88.800 160.088,88.800 160.587 C 88.800 160.701,87.360 162.248,85.600 164.024 C 83.840 165.801,82.400 167.440,82.400 167.667 C 82.400 167.894,81.860 168.583,81.200 169.200 C 80.540 169.817,80.000 170.527,80.000 170.779 C 80.000 171.030,79.531 171.705,78.958 172.278 C 78.385 172.851,77.738 173.833,77.519 174.460 C 77.301 175.087,76.959 175.600,76.761 175.600 C 76.562 175.600,76.400 175.948,76.400 176.373 C 76.400 176.798,76.040 177.260,75.600 177.400 C 75.160 177.540,74.800 177.962,74.800 178.339 C 74.800 178.715,74.440 179.283,74.000 179.600 C 73.560 179.917,73.200 180.497,73.200 180.888 C 73.200 181.280,73.020 181.600,72.800 181.600 C 72.580 181.600,72.400 181.920,72.400 182.312 C 72.400 182.703,72.040 183.283,71.600 183.600 C 71.160 183.917,70.800 184.497,70.800 184.888 C 70.800 185.280,70.620 185.600,70.400 185.600 C 70.180 185.600,70.000 185.960,70.000 186.400 C 70.000 186.840,69.820 187.200,69.600 187.200 C 69.380 187.200,69.200 187.560,69.200 188.000 C 69.200 188.440,69.020 188.800,68.800 188.800 C 68.580 188.800,68.400 189.160,68.400 189.600 C 68.400 190.040,68.220 190.400,68.000 190.400 C 67.780 190.400,67.600 190.760,67.600 191.200 C 67.600 191.640,67.420 192.000,67.200 192.000 C 66.980 192.000,66.800 192.345,66.800 192.767 C 66.800 193.188,66.665 193.593,66.500 193.667 C 66.001 193.888,64.400 197.222,64.400 198.038 C 64.400 198.457,64.220 198.800,64.000 198.800 C 63.780 198.800,63.600 199.149,63.600 199.576 C 63.600 200.003,63.420 200.464,63.200 200.600 C 62.980 200.736,62.800 201.276,62.800 201.800 C 62.800 202.324,62.620 202.864,62.400 203.000 C 62.180 203.136,62.000 203.687,62.000 204.224 C 62.000 204.761,61.820 205.200,61.600 205.200 C 61.380 205.200,61.200 205.740,61.200 206.400 C 61.200 207.060,61.034 207.600,60.832 207.600 C 60.629 207.600,60.338 208.770,60.185 210.200 C 60.032 211.630,59.748 212.800,59.553 212.800 C 59.359 212.800,59.200 213.520,59.200 214.400 C 59.200 215.280,59.020 216.000,58.800 216.000 C 58.580 216.000,58.400 216.720,58.400 217.600 C 58.400 218.480,58.220 219.200,58.000 219.200 C 57.780 219.200,57.600 220.100,57.600 221.200 C 57.600 222.300,57.420 223.200,57.200 223.200 C 56.975 223.200,56.800 224.325,56.800 225.776 C 56.800 227.193,56.620 228.464,56.400 228.600 C 56.179 228.737,56.000 230.537,56.000 232.624 C 56.000 234.875,55.838 236.400,55.600 236.400 C 55.346 236.400,55.200 239.533,55.200 245.000 C 55.200 250.467,55.346 253.600,55.600 253.600 C 55.839 253.600,56.000 255.133,56.000 257.400 C 56.000 259.667,56.161 261.200,56.400 261.200 C 56.629 261.200,56.800 262.400,56.800 264.000 C 56.800 265.600,56.971 266.800,57.200 266.800 C 57.420 266.800,57.600 267.700,57.600 268.800 C 57.600 269.900,57.780 270.800,58.000 270.800 C 58.220 270.800,58.400 271.520,58.400 272.400 C 58.400 273.280,58.580 274.000,58.800 274.000 C 59.020 274.000,59.200 274.630,59.200 275.400 C 59.200 276.170,59.354 276.800,59.543 276.800 C 59.732 276.800,60.003 277.917,60.146 279.282 C 60.288 280.648,60.584 281.944,60.802 282.162 C 61.021 282.381,61.200 282.938,61.200 283.400 C 61.200 283.862,61.349 284.411,61.530 284.620 C 61.712 284.829,62.091 285.810,62.373 286.800 C 62.654 287.790,63.226 289.292,63.642 290.138 C 64.059 290.984,64.400 292.019,64.400 292.438 C 64.400 292.857,64.580 293.200,64.800 293.200 C 65.020 293.200,65.200 293.560,65.200 294.000 C 65.200 294.440,65.380 294.800,65.600 294.800 C 65.820 294.800,66.000 295.160,66.000 295.600 C 66.000 296.040,66.180 296.400,66.400 296.400 C 66.620 296.400,66.800 296.760,66.800 297.200 C 66.800 297.640,66.980 298.000,67.200 298.000 C 67.420 298.000,67.600 298.360,67.600 298.800 C 67.600 299.240,67.780 299.600,68.000 299.600 C 68.220 299.600,68.400 299.960,68.400 300.400 C 68.400 300.840,68.580 301.200,68.800 301.200 C 69.020 301.200,69.200 301.560,69.200 302.000 C 69.200 302.440,69.380 302.800,69.600 302.800 C 69.820 302.800,70.000 303.160,70.000 303.600 C 70.000 304.040,70.180 304.400,70.400 304.400 C 70.620 304.400,70.800 304.636,70.800 304.925 C 70.800 305.213,71.160 305.836,71.600 306.308 C 72.040 306.780,72.400 307.444,72.400 307.783 C 72.400 308.122,72.580 308.400,72.800 308.400 C 73.020 308.400,73.200 308.630,73.200 308.912 C 73.200 309.193,73.560 309.683,74.000 310.000 C 74.440 310.317,74.800 310.857,74.800 311.200 C 74.800 311.543,75.160 312.083,75.600 312.400 C 76.040 312.717,76.400 313.297,76.400 313.688 C 76.400 314.080,76.562 314.400,76.761 314.400 C 76.959 314.400,77.301 314.913,77.519 315.540 C 77.738 316.167,78.385 317.149,78.958 317.722 C 79.531 318.295,80.000 318.925,80.000 319.122 C 80.000 319.320,80.540 320.046,81.200 320.737 C 81.860 321.428,82.400 322.104,82.400 322.240 C 82.400 322.376,85.011 325.123,88.202 328.344 C 91.393 331.565,95.028 335.235,96.281 336.500 C 97.534 337.765,98.702 338.800,98.878 338.800 C 99.054 338.800,99.866 339.430,100.682 340.200 C 101.499 340.970,102.417 341.600,102.723 341.600 C 103.029 341.600,103.783 342.140,104.400 342.800 C 105.017 343.460,105.769 344.000,106.072 344.000 C 106.375 344.000,106.883 344.360,107.200 344.800 C 107.517 345.240,108.057 345.600,108.400 345.600 C 108.743 345.600,109.283 345.960,109.600 346.400 C 109.917 346.840,110.407 347.200,110.688 347.200 C 110.970 347.200,111.200 347.380,111.200 347.600 C 111.200 347.820,111.520 348.000,111.912 348.000 C 112.303 348.000,112.883 348.360,113.200 348.800 C 113.517 349.240,114.097 349.600,114.488 349.600 C 114.880 349.600,115.200 349.780,115.200 350.000 C 115.200 350.220,115.560 350.400,116.000 350.400 C 116.440 350.400,116.800 350.580,116.800 350.800 C 116.800 351.020,117.120 351.200,117.512 351.200 C 117.903 351.200,118.483 351.560,118.800 352.000 C 119.117 352.440,119.697 352.800,120.088 352.800 C 120.480 352.800,120.800 352.980,120.800 353.200 C 120.800 353.420,121.160 353.600,121.600 353.600 C 122.040 353.600,122.400 353.780,122.400 354.000 C 122.400 354.220,122.749 354.400,123.176 354.400 C 123.603 354.400,124.064 354.580,124.200 354.800 C 124.336 355.020,124.872 355.200,125.390 355.200 C 125.909 355.200,126.393 355.335,126.467 355.500 C 126.685 355.991,130.016 357.600,130.814 357.600 C 131.220 357.600,131.651 357.759,131.771 357.954 C 131.892 358.148,132.802 358.429,133.795 358.578 C 134.788 358.727,135.600 359.018,135.600 359.225 C 135.600 359.431,136.140 359.600,136.800 359.600 C 137.460 359.600,138.000 359.780,138.000 360.000 C 138.000 360.220,138.720 360.400,139.600 360.400 C 140.480 360.400,141.200 360.580,141.200 360.800 C 141.200 361.020,141.740 361.200,142.400 361.200 C 143.060 361.200,143.600 361.380,143.600 361.600 C 143.600 361.820,144.219 362.000,144.976 362.000 C 145.733 362.000,146.464 362.180,146.600 362.400 C 146.736 362.620,147.647 362.800,148.624 362.800 C 149.601 362.800,150.400 362.980,150.400 363.200 C 150.400 363.420,151.300 363.600,152.400 363.600 C 153.500 363.600,154.400 363.780,154.400 364.000 C 154.400 364.231,155.659 364.400,157.376 364.400 C 159.013 364.400,160.464 364.580,160.600 364.800 C 160.757 365.054,165.671 365.200,174.024 365.200 C 182.541 365.200,187.200 365.059,187.200 364.800 C 187.200 364.569,188.467 364.400,190.200 364.400 C 191.933 364.400,193.200 364.231,193.200 364.000 C 193.200 363.780,194.100 363.600,195.200 363.600 C 196.300 363.600,197.200 363.420,197.200 363.200 C 197.200 362.980,198.100 362.800,199.200 362.800 C 200.300 362.800,201.200 362.620,201.200 362.400 C 201.200 362.180,201.819 362.000,202.576 362.000 C 203.333 362.000,204.064 361.820,204.200 361.600 C 204.336 361.380,204.977 361.200,205.624 361.200 C 206.271 361.200,206.800 361.020,206.800 360.800 C 206.800 360.580,207.430 360.400,208.200 360.400 C 208.970 360.400,209.600 360.220,209.600 360.000 C 209.600 359.780,210.140 359.600,210.800 359.600 C 211.460 359.600,212.000 359.426,212.000 359.214 C 212.000 359.001,212.900 358.708,214.000 358.562 C 215.100 358.416,216.000 358.140,216.000 357.948 C 216.000 357.757,216.315 357.594,216.700 357.587 C 217.085 357.581,218.475 357.041,219.790 356.387 C 221.104 355.734,222.499 355.200,222.890 355.200 C 223.280 355.200,223.600 355.020,223.600 354.800 C 223.600 354.580,223.960 354.400,224.400 354.400 C 224.840 354.400,225.200 354.220,225.200 354.000 C 225.200 353.780,225.560 353.600,226.000 353.600 C 226.440 353.600,226.800 353.420,226.800 353.200 C 226.800 352.980,227.120 352.800,227.512 352.800 C 227.903 352.800,228.483 352.440,228.800 352.000 C 229.117 351.560,229.697 351.200,230.088 351.200 C 230.480 351.200,230.800 351.020,230.800 350.800 C 230.800 350.580,231.160 350.400,231.600 350.400 C 232.040 350.400,232.400 350.220,232.400 350.000 C 232.400 349.780,232.720 349.600,233.112 349.600 C 233.503 349.600,234.083 349.240,234.400 348.800 C 234.717 348.360,235.297 348.000,235.688 348.000 C 236.080 348.000,236.400 347.820,236.400 347.600 C 236.400 347.380,236.636 347.200,236.925 347.200 C 237.213 347.200,237.836 346.840,238.308 346.400 C 238.780 345.960,239.354 345.600,239.583 345.600 C 239.812 345.600,240.000 345.420,240.000 345.200 C 240.000 344.980,240.270 344.800,240.600 344.800 C 240.930 344.800,241.200 344.620,241.200 344.400 C 241.200 344.180,241.398 344.000,241.640 344.000 C 241.881 344.000,242.583 343.460,243.200 342.800 C 243.817 342.140,244.571 341.600,244.877 341.600 C 245.183 341.600,246.101 340.970,246.918 340.200 C 247.734 339.430,248.573 338.800,248.782 338.800 C 249.119 338.800,252.158 335.799,261.603 326.139 C 263.141 324.565,264.400 323.156,264.400 323.007 C 264.400 322.859,265.120 322.046,266.000 321.200 C 266.880 320.354,267.600 319.467,267.600 319.228 C 267.600 318.988,268.140 318.228,268.800 317.537 C 269.460 316.846,270.000 316.078,270.000 315.829 C 270.000 315.580,270.360 315.117,270.800 314.800 C 271.240 314.483,271.600 313.903,271.600 313.512 C 271.600 313.120,271.750 312.800,271.932 312.800 C 272.115 312.800,272.519 312.305,272.830 311.700 C 273.140 311.095,273.710 310.309,274.097 309.954 C 274.483 309.598,274.911 308.743,275.049 308.054 C 275.187 307.364,275.457 306.800,275.650 306.800 C 275.843 306.800,276.000 306.480,276.000 306.088 C 276.000 305.697,276.360 305.117,276.800 304.800 C 277.240 304.483,277.600 303.903,277.600 303.512 C 277.600 303.120,277.780 302.800,278.000 302.800 C 278.220 302.800,278.400 302.440,278.400 302.000 C 278.400 301.560,278.580 301.200,278.800 301.200 C 279.020 301.200,279.200 300.840,279.200 300.400 C 279.200 299.960,279.380 299.600,279.600 299.600 C 279.820 299.600,280.000 299.240,280.000 298.800 C 280.000 298.360,280.180 298.000,280.400 298.000 C 280.620 298.000,280.800 297.640,280.800 297.200 C 280.800 296.760,280.980 296.400,281.200 296.400 C 281.420 296.400,281.600 296.040,281.600 295.600 C 281.600 295.160,281.780 294.800,282.000 294.800 C 282.220 294.800,282.400 294.260,282.400 293.600 C 282.400 292.940,282.535 292.399,282.700 292.397 C 283.106 292.393,284.000 290.414,284.000 289.520 C 284.000 289.124,284.180 288.800,284.400 288.800 C 284.620 288.800,284.800 288.451,284.800 288.024 C 284.800 287.597,284.980 287.136,285.200 287.000 C 285.420 286.864,285.600 286.313,285.600 285.776 C 285.600 285.239,285.780 284.800,286.000 284.800 C 286.220 284.800,286.400 284.271,286.400 283.624 C 286.400 282.977,286.580 282.336,286.800 282.200 C 287.020 282.064,287.200 281.513,287.200 280.976 C 287.200 279.592,285.499 279.675,282.600 281.200 C 281.345 281.860,280.067 282.400,279.759 282.400 C 279.452 282.400,279.200 282.580,279.200 282.800 C 279.200 283.020,278.840 283.200,278.400 283.200 C 277.960 283.200,277.600 283.380,277.600 283.600 C 277.600 283.820,277.150 284.000,276.600 284.000 C 276.050 284.000,275.600 284.180,275.600 284.400 C 275.600 284.620,275.240 284.800,274.800 284.800 C 274.360 284.800,274.000 284.980,274.000 285.200 C 274.000 285.420,273.460 285.600,272.800 285.600 C 272.140 285.600,271.600 285.780,271.600 286.000 C 271.600 286.220,271.060 286.400,270.400 286.400 C 269.740 286.400,269.200 286.580,269.200 286.800 C 269.200 287.020,268.660 287.200,268.000 287.200 C 267.340 287.200,266.800 287.380,266.800 287.600 C 266.800 287.820,266.260 288.000,265.600 288.000 C 264.940 288.000,264.400 288.180,264.400 288.400 C 264.400 288.620,263.860 288.800,263.200 288.800 C 262.540 288.800,262.000 288.980,262.000 289.200 C 262.000 289.420,261.370 289.600,260.600 289.600 C 259.830 289.600,259.200 289.780,259.200 290.000 C 259.200 290.220,258.480 290.400,257.600 290.400 C 256.720 290.400,256.000 290.580,256.000 290.800 C 256.000 291.020,255.100 291.200,254.000 291.200 C 252.900 291.200,252.000 291.380,252.000 291.600 C 252.000 291.820,251.100 292.000,250.000 292.000 C 248.900 292.000,248.000 292.180,248.000 292.400 C 248.000 292.626,246.867 292.800,245.400 292.800 C 243.933 292.800,242.800 292.974,242.800 293.200 C 242.800 293.420,242.267 293.600,241.616 293.600 C 240.499 293.600,238.800 294.871,238.800 295.707 C 238.800 295.903,238.080 296.754,237.200 297.600 C 236.320 298.446,235.600 299.333,235.600 299.573 C 235.600 300.008,227.410 308.400,226.986 308.400 C 226.864 308.400,226.324 308.805,225.786 309.300 C 223.614 311.300,222.949 311.825,221.898 312.368 C 221.294 312.680,220.800 313.085,220.800 313.268 C 220.800 313.450,220.564 313.600,220.275 313.600 C 219.987 313.600,219.402 313.915,218.975 314.300 C 218.549 314.685,217.705 315.255,217.100 315.568 C 216.495 315.880,216.000 316.285,216.000 316.468 C 216.000 316.650,215.640 316.800,215.200 316.800 C 214.760 316.800,214.400 316.946,214.400 317.125 C 214.400 317.304,213.770 317.698,213.000 318.000 C 212.230 318.302,211.600 318.696,211.600 318.875 C 211.600 319.054,211.330 319.200,211.000 319.200 C 210.670 319.200,210.400 319.380,210.400 319.600 C 210.400 319.820,210.130 320.000,209.800 320.000 C 209.470 320.000,209.200 320.180,209.200 320.400 C 209.200 320.620,208.660 320.800,208.000 320.800 C 207.340 320.800,206.800 320.980,206.800 321.200 C 206.800 321.420,206.440 321.600,206.000 321.600 C 205.560 321.600,205.200 321.780,205.200 322.000 C 205.200 322.220,204.840 322.400,204.400 322.400 C 203.960 322.400,203.600 322.580,203.600 322.800 C 203.600 323.020,203.060 323.200,202.400 323.200 C 201.740 323.200,201.200 323.380,201.200 323.600 C 201.200 323.820,200.660 324.000,200.000 324.000 C 199.340 324.000,198.800 324.180,198.800 324.400 C 198.800 324.620,198.260 324.800,197.600 324.800 C 196.940 324.800,196.400 324.980,196.400 325.200 C 196.400 325.420,195.860 325.600,195.200 325.600 C 194.540 325.600,194.000 325.780,194.000 326.000 C 194.000 326.220,193.205 326.400,192.233 326.400 C 191.262 326.400,190.407 326.564,190.333 326.764 C 190.018 327.625,167.648 328.855,166.664 328.066 C 166.409 327.861,164.085 327.565,161.500 327.407 C 158.915 327.250,156.800 326.959,156.800 326.761 C 156.800 326.562,156.080 326.400,155.200 326.400 C 154.320 326.400,153.600 326.220,153.600 326.000 C 153.600 325.780,153.060 325.600,152.400 325.600 C 151.740 325.600,151.200 325.420,151.200 325.200 C 151.200 324.980,150.660 324.800,150.000 324.800 C 149.340 324.800,148.800 324.620,148.800 324.400 C 148.800 324.180,148.260 324.000,147.600 324.000 C 146.940 324.000,146.400 323.820,146.400 323.600 C 146.400 323.380,145.860 323.200,145.200 323.200 C 144.540 323.200,144.000 323.020,144.000 322.800 C 144.000 322.580,143.640 322.400,143.200 322.400 C 142.760 322.400,142.400 322.220,142.400 322.000 C 142.400 321.780,141.950 321.600,141.400 321.600 C 140.850 321.600,140.400 321.420,140.400 321.200 C 140.400 320.980,140.040 320.800,139.600 320.800 C 139.160 320.800,138.800 320.620,138.800 320.400 C 138.800 320.180,138.440 320.000,138.000 320.000 C 137.560 320.000,137.200 319.820,137.200 319.600 C 137.200 319.380,136.840 319.200,136.400 319.200 C 135.960 319.200,135.600 319.020,135.600 318.800 C 135.600 318.580,135.280 318.400,134.888 318.400 C 134.497 318.400,133.917 318.040,133.600 317.600 C 133.283 317.160,132.703 316.800,132.312 316.800 C 131.920 316.800,131.600 316.620,131.600 316.400 C 131.600 316.180,131.280 316.000,130.888 316.000 C 130.497 316.000,129.917 315.640,129.600 315.200 C 129.283 314.760,128.775 314.400,128.472 314.400 C 128.169 314.400,127.417 313.860,126.800 313.200 C 126.183 312.540,125.526 311.998,125.340 311.997 C 125.153 311.995,124.337 311.365,123.527 310.597 C 122.716 309.828,121.859 309.200,121.622 309.200 C 121.057 309.200,112.000 300.139,112.000 299.573 C 112.000 299.333,111.323 298.476,110.496 297.669 C 109.668 296.861,108.770 295.700,108.499 295.089 C 108.228 294.478,107.735 293.873,107.403 293.746 C 107.072 293.619,106.800 293.213,106.800 292.846 C 106.800 292.478,106.440 291.917,106.000 291.600 C 105.560 291.283,105.200 290.743,105.200 290.400 C 105.200 290.057,104.840 289.517,104.400 289.200 C 103.960 288.883,103.600 288.303,103.600 287.912 C 103.600 287.520,103.420 287.200,103.200 287.200 C 102.980 287.200,102.800 286.840,102.800 286.400 C 102.800 285.960,102.620 285.600,102.400 285.600 C 102.180 285.600,102.000 285.255,102.000 284.833 C 102.000 284.412,101.865 284.007,101.700 283.933 C 101.268 283.741,99.600 280.428,99.600 279.762 C 99.600 279.453,99.420 279.200,99.200 279.200 C 98.980 279.200,98.800 278.840,98.800 278.400 C 98.800 277.960,98.620 277.600,98.400 277.600 C 98.180 277.600,98.000 277.150,98.000 276.600 C 98.000 276.050,97.820 275.600,97.600 275.600 C 97.380 275.600,97.200 275.240,97.200 274.800 C 97.200 274.360,97.020 274.000,96.800 274.000 C 96.580 274.000,96.400 273.460,96.400 272.800 C 96.400 272.140,96.220 271.600,96.000 271.600 C 95.780 271.600,95.600 271.060,95.600 270.400 C 95.600 269.740,95.420 269.200,95.200 269.200 C 94.980 269.200,94.800 268.480,94.800 267.600 C 94.800 266.720,94.620 266.000,94.400 266.000 C 94.180 266.000,94.000 265.280,94.000 264.400 C 94.000 263.520,93.820 262.800,93.600 262.800 C 93.380 262.800,93.200 261.990,93.200 261.000 C 93.200 260.010,93.020 259.200,92.800 259.200 C 92.571 259.200,92.400 258.000,92.400 256.400 C 92.400 254.800,92.229 253.600,92.000 253.600 C 91.746 253.600,91.600 250.467,91.600 245.000 C 91.600 239.533,91.746 236.400,92.000 236.400 C 92.229 236.400,92.400 235.200,92.400 233.600 C 92.400 232.000,92.571 230.800,92.800 230.800 C 93.020 230.800,93.200 229.900,93.200 228.800 C 93.200 227.700,93.380 226.800,93.600 226.800 C 93.820 226.800,94.000 226.080,94.000 225.200 C 94.000 224.320,94.180 223.600,94.400 223.600 C 94.620 223.600,94.800 222.970,94.800 222.200 C 94.800 221.430,94.980 220.800,95.200 220.800 C 95.420 220.800,95.600 220.260,95.600 219.600 C 95.600 218.940,95.780 218.400,96.000 218.400 C 96.220 218.400,96.400 217.860,96.400 217.200 C 96.400 216.540,96.580 216.000,96.800 216.000 C 97.020 216.000,97.200 215.460,97.200 214.800 C 97.200 214.140,97.380 213.600,97.600 213.600 C 97.820 213.600,98.000 213.240,98.000 212.800 C 98.000 212.360,98.180 212.000,98.400 212.000 C 98.620 212.000,98.800 211.640,98.800 211.200 C 98.800 210.760,98.980 210.400,99.200 210.400 C 99.420 210.400,99.600 210.040,99.600 209.600 C 99.600 209.160,99.746 208.800,99.925 208.800 C 100.104 208.800,100.498 208.170,100.800 207.400 C 101.102 206.630,101.496 206.000,101.675 206.000 C 101.854 206.000,102.000 205.766,102.000 205.480 C 102.000 204.744,102.941 202.807,103.300 202.803 C 103.465 202.801,103.600 202.480,103.600 202.088 C 103.600 201.697,103.960 201.117,104.400 200.800 C 104.840 200.483,105.200 199.903,105.200 199.512 C 105.200 199.120,105.350 198.800,105.532 198.800 C 105.715 198.800,106.120 198.305,106.432 197.700 C 106.745 197.095,107.315 196.251,107.700 195.825 C 108.085 195.398,108.400 194.819,108.400 194.538 C 108.400 194.257,109.030 193.397,109.800 192.627 C 110.570 191.857,111.200 191.129,111.200 191.009 C 111.200 190.669,121.155 180.800,121.498 180.800 C 121.667 180.800,122.569 180.080,123.503 179.200 C 124.437 178.320,125.309 177.600,125.440 177.600 C 125.572 177.600,126.156 177.090,126.740 176.467 C 127.323 175.844,128.295 175.211,128.900 175.060 C 129.505 174.908,130.000 174.608,130.000 174.392 C 130.000 174.177,130.360 174.000,130.800 174.000 C 131.240 174.000,131.600 173.842,131.600 173.649 C 131.600 173.455,132.140 173.073,132.800 172.800 C 133.460 172.527,134.000 172.145,134.000 171.951 C 134.000 171.758,134.360 171.600,134.800 171.600 C 135.240 171.600,135.600 171.420,135.600 171.200 C 135.600 170.980,135.960 170.800,136.400 170.800 C 136.840 170.800,137.200 170.620,137.200 170.400 C 137.200 170.180,137.560 170.000,138.000 170.000 C 138.440 170.000,138.801 169.865,138.803 169.700 C 138.807 169.294,140.786 168.400,141.680 168.400 C 142.076 168.400,142.400 168.220,142.400 168.000 C 142.400 167.780,142.760 167.600,143.200 167.600 C 143.640 167.600,144.000 167.420,144.000 167.200 C 144.000 166.980,144.463 166.800,145.029 166.800 C 145.594 166.800,146.314 166.543,146.629 166.229 C 147.284 165.573,147.394 164.400,146.800 164.400 C 146.546 164.400,146.400 161.400,146.400 156.200 C 146.400 151.000,146.546 148.000,146.800 148.000 C 147.029 148.000,147.200 146.800,147.200 145.200 C 147.200 143.600,147.371 142.400,147.600 142.400 C 147.820 142.400,148.000 141.601,148.000 140.624 C 148.000 139.647,148.180 138.736,148.400 138.600 C 148.620 138.464,148.800 137.733,148.800 136.976 C 148.800 136.219,148.980 135.600,149.200 135.600 C 149.420 135.600,149.600 134.880,149.600 134.000 C 149.600 133.120,149.780 132.400,150.000 132.400 C 150.220 132.400,150.400 131.860,150.400 131.200 C 150.400 130.540,150.580 130.000,150.800 130.000 C 151.020 130.000,151.200 129.190,151.200 128.200 C 151.200 126.667,151.081 126.400,150.400 126.400 C 149.960 126.400,149.600 126.559,149.600 126.753 M167.800 213.200 C 167.664 213.420,166.944 213.600,166.200 213.600 C 165.456 213.600,164.736 213.780,164.600 214.000 C 164.464 214.220,163.913 214.400,163.376 214.400 C 162.839 214.400,162.400 214.580,162.400 214.800 C 162.400 215.020,162.166 215.200,161.880 215.200 C 161.144 215.200,159.207 216.141,159.203 216.500 C 159.201 216.665,158.880 216.800,158.488 216.800 C 158.097 216.800,157.517 217.160,157.200 217.600 C 156.883 218.040,156.391 218.400,156.107 218.400 C 155.405 218.400,148.000 225.846,148.000 226.552 C 148.000 226.861,147.753 227.209,147.452 227.325 C 146.807 227.572,144.800 231.448,144.800 232.445 C 144.800 232.824,144.611 233.196,144.381 233.273 C 144.150 233.350,143.855 234.445,143.725 235.706 C 143.595 236.968,143.333 238.000,143.144 238.000 C 142.955 238.000,142.800 241.150,142.800 245.000 C 142.800 248.850,142.955 252.000,143.144 252.000 C 143.333 252.000,143.587 252.955,143.707 254.122 C 143.828 255.289,144.303 256.915,144.763 257.734 C 145.223 258.554,145.600 259.489,145.600 259.812 C 145.600 260.135,145.780 260.400,146.000 260.400 C 146.220 260.400,146.400 260.636,146.400 260.925 C 146.400 261.213,146.760 261.836,147.200 262.308 C 147.640 262.780,148.000 263.356,148.000 263.588 C 148.000 264.250,155.518 271.600,156.195 271.600 C 156.528 271.600,156.800 271.750,156.800 271.932 C 156.800 272.115,157.295 272.520,157.900 272.832 C 158.505 273.144,159.090 273.489,159.200 273.599 C 159.781 274.182,161.349 274.814,162.783 275.044 C 163.672 275.186,164.400 275.459,164.400 275.651 C 164.400 275.843,165.300 276.000,166.400 276.000 C 167.500 276.000,168.400 276.180,168.400 276.400 C 168.400 276.648,170.600 276.800,174.200 276.800 C 177.800 276.800,180.000 276.648,180.000 276.400 C 180.000 276.180,180.720 276.000,181.600 276.000 C 182.480 276.000,183.200 275.820,183.200 275.600 C 183.200 275.380,183.682 275.200,184.270 275.200 C 185.722 275.200,191.150 272.493,192.460 271.115 C 193.044 270.502,193.723 270.000,193.971 270.000 C 194.557 270.000,198.000 266.557,198.000 265.971 C 198.000 265.723,198.540 265.017,199.200 264.400 C 199.860 263.783,200.400 263.031,200.400 262.728 C 200.400 262.425,200.760 261.917,201.200 261.600 C 201.640 261.283,202.000 260.703,202.000 260.312 C 202.000 259.920,202.180 259.600,202.400 259.600 C 202.620 259.600,202.800 259.150,202.800 258.600 C 202.800 258.050,202.980 257.600,203.200 257.600 C 203.420 257.600,203.600 257.251,203.600 256.824 C 203.600 256.397,203.780 255.936,204.000 255.800 C 204.220 255.664,204.400 254.933,204.400 254.176 C 204.400 253.419,204.580 252.800,204.800 252.800 C 205.022 252.800,205.200 251.733,205.200 250.400 C 205.200 249.067,205.378 248.000,205.600 248.000 C 205.831 248.000,206.000 246.733,206.000 245.000 C 206.000 243.267,205.831 242.000,205.600 242.000 C 205.375 242.000,205.200 240.875,205.200 239.424 C 205.200 238.007,205.020 236.736,204.800 236.600 C 204.580 236.464,204.400 235.924,204.400 235.400 C 204.400 234.876,204.220 234.336,204.000 234.200 C 203.780 234.064,203.600 233.620,203.600 233.214 C 203.600 232.416,201.991 229.085,201.500 228.867 C 201.335 228.793,201.200 228.478,201.200 228.167 C 201.200 227.855,201.020 227.600,200.800 227.600 C 200.580 227.600,200.400 227.370,200.400 227.088 C 200.400 226.807,200.040 226.317,199.600 226.000 C 199.160 225.683,198.800 225.190,198.800 224.904 C 198.800 224.228,193.772 219.200,193.096 219.200 C 192.810 219.200,192.317 218.840,192.000 218.400 C 191.683 217.960,191.193 217.600,190.912 217.600 C 190.630 217.600,190.400 217.420,190.400 217.200 C 190.400 216.980,190.040 216.800,189.600 216.800 C 189.160 216.800,188.800 216.620,188.800 216.400 C 188.800 216.180,188.440 216.000,188.000 216.000 C 187.560 216.000,187.200 215.820,187.200 215.600 C 187.200 215.380,186.840 215.200,186.400 215.200 C 185.960 215.200,185.600 215.020,185.600 214.800 C 185.600 214.580,185.060 214.400,184.400 214.400 C 183.740 214.400,183.200 214.220,183.200 214.000 C 183.200 213.780,182.480 213.600,181.600 213.600 C 180.720 213.600,180.000 213.420,180.000 213.200 C 180.000 212.951,177.741 212.800,174.024 212.800 C 170.471 212.800,167.947 212.962,167.800 213.200 " stroke="none" fill="#24cbdc" fill-rule="evenodd"></path><path id="path1" d="M220.000 34.400 C 220.000 34.641,218.341 34.800,215.824 34.800 C 213.471 34.800,211.539 34.975,211.400 35.200 C 211.264 35.420,209.993 35.600,208.576 35.600 C 207.125 35.600,206.000 35.775,206.000 36.000 C 206.000 36.222,204.933 36.400,203.600 36.400 C 202.267 36.400,201.200 36.578,201.200 36.800 C 201.200 37.020,200.581 37.200,199.824 37.200 C 199.067 37.200,198.336 37.380,198.200 37.600 C 198.064 37.820,197.333 38.000,196.576 38.000 C 195.819 38.000,195.200 38.180,195.200 38.400 C 195.200 38.620,194.660 38.800,194.000 38.800 C 193.340 38.800,192.800 38.980,192.800 39.200 C 192.800 39.420,192.080 39.600,191.200 39.600 C 190.320 39.600,189.600 39.780,189.600 40.000 C 189.600 40.220,189.060 40.400,188.400 40.400 C 187.740 40.400,187.200 40.580,187.200 40.800 C 187.200 41.020,186.840 41.200,186.400 41.200 C 185.960 41.200,185.600 41.380,185.600 41.600 C 185.600 41.820,185.060 42.000,184.400 42.000 C 183.740 42.000,183.200 42.180,183.200 42.400 C 183.200 42.620,182.660 42.800,182.000 42.800 C 181.340 42.800,180.800 42.980,180.800 43.200 C 180.800 43.420,180.531 43.600,180.203 43.600 C 179.369 43.600,176.400 44.923,176.400 45.294 C 176.400 45.462,176.040 45.600,175.600 45.600 C 175.160 45.600,174.800 45.780,174.800 46.000 C 174.800 46.220,174.440 46.400,174.000 46.400 C 173.560 46.400,173.200 46.580,173.200 46.800 C 173.200 47.020,172.840 47.200,172.400 47.200 C 171.960 47.200,171.600 47.380,171.600 47.600 C 171.600 47.820,171.240 48.000,170.800 48.000 C 170.360 48.000,170.000 48.180,170.000 48.400 C 170.000 48.620,169.640 48.800,169.200 48.800 C 168.760 48.800,168.400 48.980,168.400 49.200 C 168.400 49.420,168.040 49.600,167.600 49.600 C 167.160 49.600,166.800 49.780,166.800 50.000 C 166.800 50.220,166.564 50.400,166.275 50.400 C 165.987 50.400,165.364 50.760,164.892 51.200 C 164.420 51.640,163.796 52.000,163.505 52.000 C 163.214 52.000,162.717 52.360,162.400 52.800 C 162.083 53.240,161.595 53.600,161.315 53.600 C 161.036 53.600,160.582 53.960,160.307 54.400 C 160.032 54.840,159.531 55.200,159.192 55.200 C 158.854 55.200,158.317 55.560,158.000 56.000 C 157.683 56.440,157.175 56.800,156.872 56.800 C 156.569 56.800,155.817 57.340,155.200 58.000 C 154.583 58.660,153.874 59.200,153.623 59.200 C 153.114 59.200,152.585 59.601,150.592 61.500 C 149.841 62.215,149.079 62.800,148.898 62.800 C 148.414 62.800,137.200 74.376,137.200 74.875 C 137.200 75.109,136.300 76.117,135.200 77.114 C 134.100 78.112,133.200 79.081,133.200 79.268 C 133.200 79.455,132.660 80.172,132.000 80.863 C 131.340 81.554,130.800 82.280,130.800 82.478 C 130.800 82.675,130.350 83.286,129.800 83.836 C 129.250 84.386,128.800 84.981,128.800 85.157 C 128.800 85.333,128.440 85.893,128.000 86.400 C 127.560 86.907,127.200 87.655,127.200 88.061 C 127.200 88.468,127.020 88.800,126.800 88.800 C 126.580 88.800,126.400 89.120,126.400 89.512 C 126.400 89.903,126.040 90.483,125.600 90.800 C 125.160 91.117,124.800 91.697,124.800 92.088 C 124.800 92.480,124.620 92.800,124.400 92.800 C 124.180 92.800,124.000 92.988,124.000 93.217 C 124.000 93.446,123.640 94.020,123.200 94.492 C 122.760 94.964,122.400 95.587,122.400 95.875 C 122.400 96.164,122.220 96.400,122.000 96.400 C 121.780 96.400,121.600 96.760,121.600 97.200 C 121.600 97.640,121.420 98.000,121.200 98.000 C 120.980 98.000,120.800 98.360,120.800 98.800 C 120.800 99.240,120.620 99.600,120.400 99.600 C 120.180 99.600,120.000 99.960,120.000 100.400 C 120.000 100.840,119.820 101.200,119.600 101.200 C 119.380 101.200,119.200 101.560,119.200 102.000 C 119.200 102.440,119.020 102.800,118.800 102.800 C 118.580 102.800,118.400 103.160,118.400 103.600 C 118.400 104.040,118.220 104.400,118.000 104.400 C 117.780 104.400,117.600 104.940,117.600 105.600 C 117.600 106.260,117.420 106.800,117.200 106.800 C 116.980 106.800,116.800 107.160,116.800 107.600 C 116.800 108.040,116.620 108.400,116.400 108.400 C 116.180 108.400,116.000 108.850,116.000 109.400 C 116.000 109.950,115.820 110.400,115.600 110.400 C 115.380 110.400,115.200 110.749,115.200 111.176 C 115.200 111.603,115.020 112.064,114.800 112.200 C 114.580 112.336,114.400 112.887,114.400 113.424 C 114.400 113.961,114.220 114.400,114.000 114.400 C 113.780 114.400,113.600 114.940,113.600 115.600 C 113.600 116.260,113.420 116.800,113.200 116.800 C 112.980 116.800,112.800 117.520,112.800 118.400 C 112.800 119.733,112.933 120.000,113.600 120.000 C 114.040 120.000,114.400 119.820,114.400 119.600 C 114.400 119.380,114.839 119.200,115.376 119.200 C 115.913 119.200,116.464 119.020,116.600 118.800 C 116.736 118.580,117.197 118.400,117.624 118.400 C 118.051 118.400,118.401 118.265,118.403 118.100 C 118.407 117.741,120.344 116.800,121.080 116.800 C 121.366 116.800,121.600 116.620,121.600 116.400 C 121.600 116.180,122.050 116.000,122.600 116.000 C 123.150 116.000,123.600 115.820,123.600 115.600 C 123.600 115.380,123.960 115.200,124.400 115.200 C 124.840 115.200,125.200 115.020,125.200 114.800 C 125.200 114.580,125.740 114.400,126.400 114.400 C 127.060 114.400,127.600 114.220,127.600 114.000 C 127.600 113.780,128.140 113.600,128.800 113.600 C 129.460 113.600,130.000 113.420,130.000 113.200 C 130.000 112.980,130.540 112.800,131.200 112.800 C 131.860 112.800,132.400 112.620,132.400 112.400 C 132.400 112.180,132.940 112.000,133.600 112.000 C 134.260 112.000,134.800 111.820,134.800 111.600 C 134.800 111.380,135.340 111.200,136.000 111.200 C 136.660 111.200,137.200 111.020,137.200 110.800 C 137.200 110.580,137.819 110.400,138.576 110.400 C 139.333 110.400,140.064 110.220,140.200 110.000 C 140.336 109.780,141.067 109.600,141.824 109.600 C 142.581 109.600,143.200 109.439,143.200 109.242 C 143.200 109.045,144.685 108.755,146.500 108.597 C 148.315 108.440,149.980 108.168,150.200 107.994 C 150.420 107.819,151.680 107.574,153.000 107.450 C 158.713 106.910,159.600 106.731,159.600 106.122 C 159.600 105.791,160.140 105.017,160.800 104.400 C 161.460 103.783,162.000 103.073,162.000 102.820 C 162.000 102.568,163.260 101.119,164.800 99.600 C 166.340 98.081,167.600 96.637,167.600 96.391 C 167.600 95.828,168.606 94.800,169.157 94.800 C 169.385 94.800,170.788 93.630,172.276 92.200 C 173.763 90.770,175.137 89.600,175.329 89.600 C 175.522 89.600,176.183 89.060,176.800 88.400 C 177.417 87.740,178.137 87.200,178.400 87.200 C 178.663 87.200,179.383 86.660,180.000 86.000 C 180.617 85.340,181.409 84.800,181.760 84.800 C 182.112 84.800,182.400 84.620,182.400 84.400 C 182.400 84.180,182.720 84.000,183.112 84.000 C 183.503 84.000,184.083 83.640,184.400 83.200 C 184.717 82.760,185.297 82.400,185.688 82.400 C 186.080 82.400,186.401 82.265,186.401 82.100 C 186.402 81.935,187.392 81.350,188.600 80.800 C 189.808 80.250,190.798 79.665,190.799 79.500 C 190.799 79.335,191.160 79.200,191.600 79.200 C 192.040 79.200,192.400 79.020,192.400 78.800 C 192.400 78.580,192.760 78.400,193.200 78.400 C 193.640 78.400,194.000 78.220,194.000 78.000 C 194.000 77.780,194.360 77.600,194.800 77.600 C 195.240 77.600,195.600 77.420,195.600 77.200 C 195.600 76.980,196.140 76.800,196.800 76.800 C 197.460 76.800,198.000 76.620,198.000 76.400 C 198.000 76.180,198.540 76.000,199.200 76.000 C 199.860 76.000,200.400 75.841,200.400 75.646 C 200.400 75.451,201.387 75.169,202.594 75.018 C 203.800 74.867,204.891 74.577,205.017 74.372 C 205.144 74.167,205.856 74.000,206.600 74.000 C 207.344 74.000,208.064 73.820,208.200 73.600 C 208.336 73.380,209.146 73.200,210.000 73.200 C 210.854 73.200,211.664 73.020,211.800 72.800 C 211.936 72.580,213.196 72.400,214.600 72.400 C 216.004 72.400,217.264 72.220,217.400 72.000 C 217.716 71.489,233.694 71.458,234.220 71.968 C 234.429 72.170,235.770 72.432,237.200 72.550 C 241.523 72.908,243.600 73.261,243.600 73.640 C 243.600 73.838,244.219 74.000,244.976 74.000 C 245.733 74.000,246.451 74.159,246.571 74.353 C 246.691 74.547,247.961 74.831,249.394 74.985 C 250.827 75.138,252.000 75.429,252.000 75.632 C 252.000 75.834,252.540 76.000,253.200 76.000 C 253.860 76.000,254.400 76.180,254.400 76.400 C 254.400 76.620,254.760 76.800,255.200 76.800 C 255.640 76.800,256.000 76.980,256.000 77.200 C 256.000 77.420,256.360 77.600,256.800 77.600 C 257.240 77.600,257.600 77.780,257.600 78.000 C 257.600 78.220,258.140 78.400,258.800 78.400 C 259.460 78.400,260.000 78.580,260.000 78.800 C 260.000 79.020,260.270 79.200,260.600 79.200 C 260.930 79.200,261.200 79.380,261.200 79.600 C 261.200 79.820,261.560 80.000,262.000 80.000 C 262.440 80.000,262.800 80.180,262.800 80.400 C 262.800 80.620,263.078 80.800,263.417 80.800 C 263.756 80.800,264.420 81.160,264.892 81.600 C 265.364 82.040,265.987 82.400,266.275 82.400 C 266.564 82.400,266.800 82.580,266.800 82.800 C 266.800 83.020,267.120 83.200,267.512 83.200 C 267.903 83.200,268.483 83.560,268.800 84.000 C 269.117 84.440,269.657 84.800,270.000 84.800 C 270.343 84.800,270.883 85.160,271.200 85.600 C 271.517 86.040,272.057 86.400,272.400 86.400 C 272.743 86.400,273.283 86.760,273.600 87.200 C 273.917 87.640,274.414 88.000,274.703 88.000 C 274.993 88.000,276.017 88.810,276.979 89.800 C 277.941 90.790,278.927 91.600,279.169 91.600 C 279.742 91.600,287.200 99.054,287.200 99.626 C 287.200 99.866,287.920 100.754,288.800 101.600 C 289.680 102.446,290.400 103.305,290.400 103.509 C 290.400 103.714,290.895 104.405,291.500 105.045 C 292.105 105.685,292.960 106.894,293.400 107.731 C 293.840 108.569,294.470 109.557,294.801 109.927 C 295.131 110.297,295.834 111.455,296.363 112.500 C 296.893 113.545,297.477 114.400,297.663 114.400 C 297.848 114.400,298.000 114.760,298.000 115.200 C 298.000 115.640,298.180 116.000,298.400 116.000 C 298.620 116.000,298.800 116.360,298.800 116.800 C 298.800 117.240,298.980 117.600,299.200 117.600 C 299.420 117.600,299.600 117.960,299.600 118.400 C 299.600 118.840,299.780 119.200,300.000 119.200 C 300.220 119.200,300.400 119.555,300.400 119.988 C 300.400 120.421,300.760 121.417,301.200 122.200 C 301.640 122.983,302.000 123.979,302.000 124.412 C 302.000 124.845,302.180 125.200,302.400 125.200 C 302.620 125.200,302.800 125.560,302.800 126.000 C 302.800 126.440,302.980 126.800,303.200 126.800 C 303.420 126.800,303.600 127.340,303.600 128.000 C 303.600 128.660,303.780 129.200,304.000 129.200 C 304.220 129.200,304.400 129.920,304.400 130.800 C 304.400 131.680,304.580 132.400,304.800 132.400 C 305.020 132.400,305.200 132.940,305.200 133.600 C 305.200 134.260,305.380 134.800,305.600 134.800 C 305.820 134.800,306.000 135.599,306.000 136.576 C 306.000 137.553,306.180 138.464,306.400 138.600 C 306.620 138.736,306.800 139.647,306.800 140.624 C 306.800 141.601,306.980 142.400,307.200 142.400 C 307.440 142.400,307.600 144.000,307.600 146.400 C 307.600 148.800,307.760 150.400,308.000 150.400 C 308.244 150.400,308.400 152.267,308.400 155.200 C 308.400 158.133,308.244 160.000,308.000 160.000 C 307.765 160.000,307.600 161.400,307.600 163.400 C 307.600 165.400,307.435 166.800,307.200 166.800 C 306.978 166.800,306.800 167.867,306.800 169.200 C 306.800 170.533,306.622 171.600,306.400 171.600 C 306.180 171.600,306.000 172.500,306.000 173.600 C 306.000 174.700,305.820 175.600,305.600 175.600 C 305.380 175.600,305.200 176.039,305.200 176.576 C 305.200 177.113,305.020 177.664,304.800 177.800 C 304.580 177.936,304.400 178.667,304.400 179.424 C 304.400 180.181,304.220 180.800,304.000 180.800 C 303.780 180.800,303.600 181.340,303.600 182.000 C 303.600 182.660,303.420 183.200,303.200 183.200 C 302.980 183.200,302.800 183.560,302.800 184.000 C 302.800 184.440,302.620 184.800,302.400 184.800 C 302.180 184.800,302.000 185.340,302.000 186.000 C 302.000 186.660,301.820 187.200,301.600 187.200 C 301.380 187.200,301.200 187.560,301.200 188.000 C 301.200 188.440,301.020 188.800,300.800 188.800 C 300.580 188.800,300.400 189.160,300.400 189.600 C 300.400 190.040,300.220 190.400,300.000 190.400 C 299.780 190.400,299.600 190.760,299.600 191.200 C 299.600 191.640,299.420 192.000,299.200 192.000 C 298.980 192.000,298.800 192.360,298.800 192.800 C 298.800 193.240,298.665 193.601,298.500 193.601 C 298.335 193.602,297.750 194.592,297.200 195.800 C 296.650 197.008,296.086 197.998,295.947 197.999 C 295.808 197.999,295.191 199.035,294.577 200.300 C 293.963 201.565,293.132 202.891,292.730 203.247 C 292.329 203.603,292.000 204.116,292.000 204.386 C 292.000 204.657,291.460 205.383,290.800 206.000 C 290.140 206.617,289.600 207.320,289.600 207.564 C 289.600 207.808,287.594 209.941,285.143 212.304 C 278.641 218.571,277.200 220.048,277.200 220.445 C 277.200 220.640,276.912 220.800,276.560 220.800 C 276.209 220.800,275.417 221.340,274.800 222.000 C 274.183 222.660,273.431 223.200,273.128 223.200 C 272.825 223.200,272.317 223.560,272.000 224.000 C 271.683 224.440,271.143 224.800,270.800 224.800 C 270.457 224.800,269.917 225.160,269.600 225.600 C 269.283 226.040,268.718 226.400,268.345 226.400 C 267.972 226.400,267.607 226.545,267.533 226.722 C 267.460 226.900,265.600 227.929,263.400 229.009 C 261.200 230.090,259.340 231.115,259.267 231.287 C 259.193 231.459,258.788 231.600,258.367 231.600 C 257.945 231.600,257.600 231.780,257.600 232.000 C 257.600 232.220,257.060 232.400,256.400 232.400 C 255.740 232.400,255.200 232.580,255.200 232.800 C 255.200 233.020,254.660 233.200,254.000 233.200 L 252.800 233.200 252.800 244.200 C 252.800 251.267,252.657 255.200,252.400 255.200 C 252.174 255.200,252.000 256.333,252.000 257.800 C 252.000 259.267,251.826 260.400,251.600 260.400 C 251.380 260.400,251.200 261.109,251.200 261.976 C 251.200 262.843,251.020 263.664,250.800 263.800 C 250.580 263.936,250.400 264.667,250.400 265.424 C 250.400 266.181,250.220 266.800,250.000 266.800 C 249.780 266.800,249.600 267.520,249.600 268.400 C 249.600 269.280,249.420 270.000,249.200 270.000 C 248.980 270.000,248.800 270.738,248.800 271.640 L 248.800 273.281 250.500 273.053 C 254.589 272.506,255.618 272.294,255.826 271.958 C 255.948 271.761,256.476 271.600,257.000 271.600 C 257.524 271.600,258.064 271.420,258.200 271.200 C 258.336 270.980,259.067 270.800,259.824 270.800 C 260.581 270.800,261.200 270.620,261.200 270.400 C 261.200 270.180,261.740 270.000,262.400 270.000 C 263.060 270.000,263.600 269.820,263.600 269.600 C 263.600 269.380,264.039 269.200,264.576 269.200 C 265.113 269.200,265.664 269.020,265.800 268.800 C 265.936 268.580,266.397 268.400,266.824 268.400 C 267.251 268.400,267.600 268.220,267.600 268.000 C 267.600 267.780,268.039 267.600,268.576 267.600 C 269.113 267.600,269.664 267.420,269.800 267.200 C 269.936 266.980,270.397 266.800,270.824 266.800 C 271.251 266.800,271.600 266.620,271.600 266.400 C 271.600 266.180,272.050 266.000,272.600 266.000 C 273.150 266.000,273.600 265.820,273.600 265.600 C 273.600 265.380,273.960 265.200,274.400 265.200 C 274.840 265.200,275.200 265.020,275.200 264.800 C 275.200 264.580,275.560 264.400,276.000 264.400 C 276.440 264.400,276.800 264.220,276.800 264.000 C 276.800 263.780,277.160 263.600,277.600 263.600 C 278.040 263.600,278.400 263.420,278.400 263.200 C 278.400 262.980,278.760 262.800,279.200 262.800 C 279.640 262.800,280.000 262.620,280.000 262.400 C 280.000 262.180,280.360 262.000,280.800 262.000 C 281.240 262.000,281.600 261.820,281.600 261.600 C 281.600 261.380,281.960 261.200,282.400 261.200 C 282.840 261.200,283.200 261.020,283.200 260.800 C 283.200 260.580,283.520 260.400,283.912 260.400 C 284.303 260.400,284.883 260.040,285.200 259.600 C 285.517 259.160,286.077 258.800,286.443 258.800 C 287.132 258.800,291.297 256.128,291.533 255.534 C 291.607 255.350,291.939 255.200,292.273 255.200 C 292.606 255.200,293.383 254.660,294.000 254.000 C 294.617 253.340,295.337 252.800,295.600 252.800 C 295.863 252.800,296.583 252.260,297.200 251.600 C 297.817 250.940,298.530 250.400,298.786 250.400 C 299.042 250.400,300.129 249.500,301.200 248.400 C 302.271 247.300,303.318 246.400,303.526 246.400 C 304.064 246.400,314.400 236.126,314.400 235.592 C 314.400 235.348,315.300 234.271,316.400 233.200 C 317.500 232.129,318.400 231.042,318.400 230.786 C 318.400 230.530,318.940 229.817,319.600 229.200 C 320.260 228.583,320.800 227.863,320.800 227.600 C 320.800 227.337,321.340 226.617,322.000 226.000 C 322.660 225.383,323.200 224.709,323.200 224.502 C 323.200 224.294,323.544 223.813,323.964 223.433 C 324.384 223.052,324.838 222.304,324.972 221.771 C 325.106 221.237,325.392 220.800,325.608 220.800 C 325.823 220.800,326.000 220.440,326.000 220.000 C 326.000 219.560,326.180 219.200,326.400 219.200 C 326.620 219.200,326.800 218.880,326.800 218.488 C 326.800 218.097,327.160 217.517,327.600 217.200 C 328.040 216.883,328.400 216.303,328.400 215.912 C 328.400 215.520,328.580 215.200,328.800 215.200 C 329.020 215.200,329.200 214.840,329.200 214.400 C 329.200 213.960,329.380 213.600,329.600 213.600 C 329.820 213.600,330.000 213.240,330.000 212.800 C 330.000 212.360,330.180 212.000,330.400 212.000 C 330.620 212.000,330.800 211.640,330.800 211.200 C 330.800 210.760,330.980 210.400,331.200 210.400 C 331.420 210.400,331.600 210.040,331.600 209.600 C 331.600 209.160,331.780 208.800,332.000 208.800 C 332.220 208.800,332.400 208.530,332.400 208.200 C 332.400 207.870,332.580 207.600,332.800 207.600 C 333.020 207.600,333.200 207.240,333.200 206.800 C 333.200 206.360,333.380 206.000,333.600 206.000 C 333.820 206.000,334.000 205.640,334.000 205.200 C 334.000 204.760,334.180 204.400,334.400 204.400 C 334.620 204.400,334.800 203.860,334.800 203.200 C 334.800 202.540,334.980 202.000,335.200 202.000 C 335.420 202.000,335.600 201.640,335.600 201.200 C 335.600 200.760,335.780 200.400,336.000 200.400 C 336.220 200.400,336.400 199.860,336.400 199.200 C 336.400 198.540,336.580 198.000,336.800 198.000 C 337.020 198.000,337.200 197.651,337.200 197.224 C 337.200 196.797,337.380 196.336,337.600 196.200 C 337.820 196.064,338.000 195.513,338.000 194.976 C 338.000 194.439,338.180 194.000,338.400 194.000 C 338.620 194.000,338.800 193.460,338.800 192.800 C 338.800 192.140,338.980 191.600,339.200 191.600 C 339.420 191.600,339.600 190.981,339.600 190.224 C 339.600 189.467,339.780 188.736,340.000 188.600 C 340.220 188.464,340.400 187.744,340.400 187.000 C 340.400 186.256,340.565 185.545,340.766 185.421 C 340.967 185.296,341.259 183.846,341.413 182.197 C 341.568 180.549,341.853 179.200,342.047 179.200 C 342.241 179.200,342.400 178.221,342.400 177.024 C 342.400 175.827,342.580 174.736,342.800 174.600 C 343.020 174.464,343.200 173.193,343.200 171.776 C 343.200 170.325,343.375 169.200,343.600 169.200 C 343.859 169.200,344.000 164.267,344.000 155.200 C 344.000 146.133,343.859 141.200,343.600 141.200 C 343.367 141.200,343.200 139.867,343.200 138.000 C 343.200 136.133,343.033 134.800,342.800 134.800 C 342.580 134.800,342.400 133.900,342.400 132.800 C 342.400 131.700,342.246 130.800,342.058 130.800 C 341.870 130.800,341.605 129.612,341.469 128.160 C 341.334 126.707,341.050 124.952,340.838 124.260 C 340.627 123.567,340.244 122.190,339.988 121.200 C 339.732 120.210,339.360 119.087,339.161 118.705 C 338.962 118.323,338.800 117.558,338.800 117.005 C 338.800 116.452,338.620 116.000,338.400 116.000 C 338.180 116.000,338.000 115.561,338.000 115.024 C 338.000 114.487,337.820 113.936,337.600 113.800 C 337.380 113.664,337.200 113.113,337.200 112.576 C 337.200 112.039,337.020 111.600,336.800 111.600 C 336.580 111.600,336.400 111.240,336.400 110.800 C 336.400 110.360,336.220 110.000,336.000 110.000 C 335.780 110.000,335.600 109.460,335.600 108.800 C 335.600 108.140,335.420 107.600,335.200 107.600 C 334.980 107.600,334.800 107.240,334.800 106.800 C 334.800 106.360,334.620 106.000,334.400 106.000 C 334.180 106.000,334.000 105.640,334.000 105.200 C 334.000 104.760,333.820 104.400,333.600 104.400 C 333.380 104.400,333.200 103.860,333.200 103.200 C 333.200 102.540,333.020 102.000,332.800 102.000 C 332.580 102.000,332.400 101.655,332.400 101.233 C 332.400 100.812,332.265 100.407,332.100 100.333 C 331.935 100.260,331.367 99.345,330.837 98.300 C 330.308 97.255,329.723 96.400,329.537 96.400 C 329.352 96.400,329.200 96.040,329.200 95.600 C 329.200 95.160,329.020 94.800,328.800 94.800 C 328.580 94.800,328.400 94.530,328.400 94.200 C 328.400 93.870,328.220 93.600,328.000 93.600 C 327.780 93.600,327.600 93.280,327.600 92.888 C 327.600 92.497,327.240 91.917,326.800 91.600 C 326.360 91.283,326.000 90.703,326.000 90.312 C 326.000 89.920,325.820 89.600,325.600 89.600 C 325.380 89.600,325.200 89.253,325.200 88.829 C 325.200 88.404,324.975 87.819,324.699 87.529 C 324.424 87.238,323.749 86.326,323.199 85.503 C 322.650 84.679,322.065 84.004,321.900 84.003 C 321.735 84.001,321.600 83.757,321.600 83.459 C 321.600 83.162,321.060 82.354,320.400 81.663 C 319.740 80.972,319.200 80.252,319.200 80.063 C 319.200 79.575,316.874 77.200,316.397 77.200 C 316.178 77.200,316.000 76.928,316.000 76.595 C 316.000 75.826,302.632 62.000,301.889 62.000 C 301.710 62.000,301.124 61.595,300.586 61.100 C 297.982 58.702,297.592 58.400,297.103 58.400 C 296.813 58.400,296.317 58.040,296.000 57.600 C 295.683 57.160,295.175 56.800,294.872 56.800 C 294.569 56.800,293.817 56.260,293.200 55.600 C 292.583 54.940,291.964 54.400,291.823 54.400 C 291.682 54.400,291.180 54.040,290.708 53.600 C 290.236 53.160,289.613 52.800,289.325 52.800 C 289.036 52.800,288.800 52.620,288.800 52.400 C 288.800 52.180,288.480 52.000,288.088 52.000 C 287.697 52.000,287.117 51.640,286.800 51.200 C 286.483 50.760,285.903 50.400,285.512 50.400 C 285.120 50.400,284.800 50.220,284.800 50.000 C 284.800 49.780,284.440 49.600,284.000 49.600 C 283.560 49.600,283.200 49.420,283.200 49.200 C 283.200 48.980,282.880 48.800,282.488 48.800 C 282.097 48.800,281.517 48.440,281.200 48.000 C 280.883 47.560,280.303 47.200,279.912 47.200 C 279.520 47.200,279.200 47.020,279.200 46.800 C 279.200 46.580,278.966 46.400,278.680 46.400 C 277.944 46.400,276.007 45.459,276.003 45.100 C 276.001 44.935,275.661 44.800,275.246 44.800 C 274.831 44.800,273.976 44.531,273.346 44.202 C 272.716 43.874,271.885 43.604,271.500 43.602 C 271.115 43.601,270.800 43.420,270.800 43.200 C 270.800 42.980,270.260 42.800,269.600 42.800 C 268.940 42.800,268.400 42.620,268.400 42.400 C 268.400 42.180,268.040 42.000,267.600 42.000 C 267.160 42.000,266.800 41.820,266.800 41.600 C 266.800 41.380,266.260 41.200,265.600 41.200 C 264.940 41.200,264.400 41.020,264.400 40.800 C 264.400 40.580,263.860 40.400,263.200 40.400 C 262.540 40.400,262.000 40.220,262.000 40.000 C 262.000 39.780,261.460 39.600,260.800 39.600 C 260.140 39.600,259.600 39.420,259.600 39.200 C 259.600 38.980,258.970 38.800,258.200 38.800 C 257.430 38.800,256.800 38.620,256.800 38.400 C 256.800 38.180,256.080 38.000,255.200 38.000 C 254.320 38.000,253.600 37.820,253.600 37.600 C 253.600 37.380,252.880 37.200,252.000 37.200 C 251.120 37.200,250.400 37.020,250.400 36.800 C 250.400 36.578,249.333 36.400,248.000 36.400 C 246.667 36.400,245.600 36.222,245.600 36.000 C 245.600 35.778,244.533 35.600,243.200 35.600 C 241.867 35.600,240.800 35.422,240.800 35.200 C 240.800 34.957,239.000 34.800,236.200 34.800 C 233.400 34.800,231.600 34.643,231.600 34.400 C 231.600 34.152,229.400 34.000,225.800 34.000 C 222.200 34.000,220.000 34.152,220.000 34.400 M219.200 123.600 C 219.200 123.820,218.480 124.000,217.600 124.000 C 216.720 124.000,216.000 124.180,216.000 124.400 C 216.000 124.620,215.460 124.800,214.800 124.800 C 214.140 124.800,213.600 124.980,213.600 125.200 C 213.600 125.420,213.240 125.600,212.800 125.600 C 212.360 125.600,212.000 125.780,212.000 126.000 C 212.000 126.220,211.640 126.400,211.200 126.400 C 210.760 126.400,210.400 126.580,210.400 126.800 C 210.400 127.020,210.158 127.200,209.861 127.200 C 209.565 127.200,208.907 127.560,208.400 128.000 C 207.893 128.440,207.333 128.800,207.156 128.800 C 206.608 128.800,200.400 135.135,200.400 135.695 C 200.400 135.985,200.040 136.483,199.600 136.800 C 199.160 137.117,198.800 137.697,198.800 138.088 C 198.800 138.480,198.620 138.800,198.400 138.800 C 198.180 138.800,198.000 139.160,198.000 139.600 C 198.000 140.040,197.820 140.400,197.600 140.400 C 197.380 140.400,197.200 140.760,197.200 141.200 C 197.200 141.640,197.020 142.000,196.800 142.000 C 196.580 142.000,196.400 142.439,196.400 142.976 C 196.400 143.513,196.220 144.064,196.000 144.200 C 195.780 144.336,195.600 144.851,195.600 145.344 C 195.600 145.837,195.437 146.411,195.239 146.620 C 194.438 147.462,193.697 158.043,194.346 159.372 C 194.568 159.827,194.852 160.875,194.975 161.700 C 195.489 165.128,195.706 166.000,196.044 166.000 C 196.240 166.000,196.400 166.342,196.400 166.759 C 196.400 167.491,198.570 171.971,199.129 172.394 C 199.279 172.507,199.656 173.095,199.968 173.700 C 200.280 174.305,200.685 174.800,200.868 174.800 C 201.050 174.800,201.200 174.984,201.200 175.209 C 201.200 175.765,205.470 180.000,206.031 180.000 C 206.277 180.000,206.983 180.540,207.600 181.200 C 208.217 181.860,209.009 182.400,209.360 182.400 C 209.712 182.400,210.000 182.580,210.000 182.800 C 210.000 183.020,210.270 183.200,210.600 183.200 C 210.930 183.200,211.200 183.380,211.200 183.600 C 211.200 183.820,211.560 184.000,212.000 184.000 C 212.440 184.000,212.800 184.180,212.800 184.400 C 212.800 184.620,213.160 184.800,213.600 184.800 C 214.040 184.800,214.400 184.980,214.400 185.200 C 214.400 185.420,214.929 185.600,215.576 185.600 C 216.223 185.600,216.864 185.780,217.000 186.000 C 217.136 186.220,218.047 186.400,219.024 186.400 C 220.001 186.400,220.800 186.580,220.800 186.800 C 220.800 187.046,222.792 187.200,225.976 187.200 C 228.996 187.200,231.256 187.033,231.400 186.800 C 231.536 186.580,232.357 186.400,233.224 186.400 C 234.091 186.400,234.800 186.220,234.800 186.000 C 234.800 185.780,235.340 185.600,236.000 185.600 C 236.660 185.600,237.200 185.420,237.200 185.200 C 237.200 184.980,237.562 184.800,238.005 184.800 C 238.957 184.800,240.333 184.077,241.243 183.100 C 241.601 182.715,242.148 182.400,242.459 182.400 C 242.769 182.400,243.283 182.040,243.600 181.600 C 243.917 181.160,244.410 180.800,244.695 180.800 C 245.187 180.800,251.200 175.060,251.200 174.590 C 251.200 174.467,251.560 173.980,252.000 173.508 C 252.440 173.036,252.800 172.413,252.800 172.125 C 252.800 171.836,252.980 171.600,253.200 171.600 C 253.420 171.600,253.600 171.240,253.600 170.800 C 253.600 170.360,253.780 170.000,254.000 170.000 C 254.220 170.000,254.400 169.640,254.400 169.200 C 254.400 168.760,254.580 168.400,254.800 168.400 C 255.020 168.400,255.200 168.040,255.200 167.600 C 255.200 167.160,255.380 166.800,255.600 166.800 C 255.820 166.800,256.000 166.271,256.000 165.624 C 256.000 164.977,256.161 164.348,256.358 164.226 C 257.657 163.423,257.657 146.577,256.358 145.774 C 256.161 145.652,256.000 145.113,256.000 144.576 C 256.000 144.039,255.820 143.600,255.600 143.600 C 255.380 143.600,255.200 143.245,255.200 142.812 C 255.200 142.379,254.840 141.383,254.400 140.600 C 253.960 139.817,253.600 138.951,253.600 138.676 C 253.600 138.401,253.240 137.917,252.800 137.600 C 252.360 137.283,252.000 136.783,252.000 136.489 C 252.000 135.778,244.491 128.400,243.767 128.400 C 243.455 128.400,243.200 128.223,243.200 128.008 C 243.200 127.792,242.750 127.502,242.200 127.364 C 241.650 127.226,241.200 126.953,241.200 126.757 C 241.200 126.560,240.840 126.400,240.400 126.400 C 239.960 126.400,239.600 126.220,239.600 126.000 C 239.600 125.780,239.240 125.600,238.800 125.600 C 238.360 125.600,238.000 125.420,238.000 125.200 C 238.000 124.980,237.460 124.800,236.800 124.800 C 236.140 124.800,235.600 124.620,235.600 124.400 C 235.600 124.180,234.880 124.000,234.000 124.000 C 233.120 124.000,232.400 123.820,232.400 123.600 C 232.400 123.349,229.933 123.200,225.800 123.200 C 221.667 123.200,219.200 123.349,219.200 123.600 " stroke="none" fill="#fcc434" fill-rule="evenodd"></path><path id="path2" d="" stroke="none" fill="#58c8e0" fill-rule="evenodd"></path><path id="path3" d="" stroke="none" fill="#58c8e0" fill-rule="evenodd"></path><path id="path4" d="" stroke="none" fill="#58c8e0" fill-rule="evenodd"></path></g></svg>