<svg width="359" height="330" viewBox="0 0 359 330" fill="none" xmlns="http://www.w3.org/2000/svg">
<circle cx="259" cy="100" r="100" fill="#8A1F33"/>
<circle cx="256.5" cy="100.5" r="90.5" fill="#D13753"/>
<circle cx="100" cy="160" r="100" fill="#8A1F33"/>
<circle cx="94.5" cy="162.5" r="90.5" fill="#D13753"/>
<circle cx="247" cy="230" r="100" fill="#8A1F33"/>
<circle cx="241.5" cy="232.5" r="90.5" fill="#D13753"/>
<path d="M77.0671 201.874L50.8201 195.368L56.1324 184.758L77.0671 201.874Z" fill="#6C0A1D"/>
<path d="M30.5668 177.035L54.9682 183.998L49.0217 194.451L30.5668 177.035Z" fill="#6C0A1D"/>
<path d="M270.161 48.6715L261.477 75.6605L251.363 69.8954L270.161 48.6715Z" fill="#6C0A1D"/>
<path d="M243.607 218.745L256.444 186.076L269.619 195.179L243.607 218.745Z" fill="#6C0A1D"/>
<path d="M277.577 166.231L269.64 195.098L256.783 187.77L277.577 166.231Z" fill="#6C0A1D"/>
<path d="M64.9712 168.437L56.7355 195.02L46.2933 189.068L64.9712 168.437Z" fill="#6C0A1D"/>
<path d="M235.908 100.919L247.806 72.7561L258.038 79.8251L235.908 100.919Z" fill="#6C0A1D"/>
<path d="M231.842 62.9269L259.611 71.1326L254.142 81.3982L231.842 62.9269Z" fill="#6C0A1D"/>
<path d="M36.4966 212.198L46.4435 187.608L55.9757 194.194L36.4966 212.198Z" fill="#6C0A1D"/>
<path d="M234.776 179.087L262.719 186.095L256.179 198.37L234.776 179.087Z" fill="#6C0A1D"/>
<path d="M280.88 88.6346L252.108 80.9795L257.512 70.1856L280.88 88.6346Z" fill="#6C0A1D"/>
<path d="M292.458 207.3L260.935 199.529L267.35 186.717L292.458 207.3Z" fill="#6C0A1D"/>
</svg>
