<svg id="svg" version="1.1" xmlns="http://www.w3.org/2000/svg" xmlns:xlink="http://www.w3.org/1999/xlink" width="400" height="400" viewBox="0, 0, 400,400"><g id="svgg"><path id="path0" d="M164.145 97.000 C 163.825 97.833,163.285 96.826,173.997 115.400 C 179.325 124.640,184.235 133.190,184.908 134.400 C 187.776 139.557,189.563 142.231,190.452 142.694 C 192.060 143.532,276.530 143.413,277.371 142.571 C 278.198 141.745,278.341 97.701,277.520 96.880 C 276.716 96.076,164.454 96.195,164.145 97.000 M224.830 154.370 C 224.057 155.143,224.042 155.933,224.011 196.202 C 223.977 241.523,224.083 239.544,221.388 244.999 C 214.610 258.716,190.374 261.088,178.359 249.211 C 172.381 243.301,171.932 241.517,171.719 222.800 C 171.565 209.204,171.468 207.341,170.896 206.900 C 169.808 206.061,123.473 206.185,122.629 207.029 C 121.719 207.938,121.695 236.735,122.600 241.465 C 122.930 243.189,123.202 245.140,123.204 245.800 C 123.218 250.296,127.500 262.466,131.462 269.267 C 138.300 281.007,151.685 292.383,164.162 297.061 C 171.333 299.749,173.960 300.537,179.400 301.631 C 226.766 311.154,271.610 285.179,276.827 245.200 C 277.043 243.550,277.384 241.300,277.586 240.200 C 278.327 236.156,278.094 154.976,277.339 154.349 C 276.105 153.325,225.855 153.345,224.830 154.370 " stroke="none" fill="#f9f9f9" fill-rule="evenodd"></path><path id="path1" d="M164.800 0.285 C 164.250 0.389,163.530 0.705,163.200 0.989 C 162.859 1.283,161.150 1.586,159.240 1.690 C 156.850 1.821,155.752 2.051,155.433 2.487 C 155.126 2.906,154.084 3.150,152.122 3.261 C 150.153 3.372,149.021 3.638,148.498 4.111 C 148.007 4.556,147.075 4.800,145.869 4.800 C 144.533 4.800,143.772 5.028,143.200 5.600 C 142.652 6.148,141.865 6.400,140.700 6.401 C 139.707 6.402,138.455 6.735,137.690 7.201 C 136.970 7.641,135.890 8.001,135.290 8.001 C 134.691 8.002,133.611 8.362,132.890 8.801 C 132.170 9.241,131.104 9.600,130.522 9.600 C 129.939 9.600,129.156 9.878,128.781 10.217 C 128.406 10.557,127.402 10.941,126.550 11.071 C 125.697 11.202,124.718 11.552,124.374 11.849 C 124.029 12.147,123.159 12.508,122.439 12.652 C 121.720 12.796,121.037 13.158,120.923 13.457 C 120.808 13.756,120.329 14.002,119.857 14.004 C 119.386 14.006,118.100 14.450,117.000 14.991 C 115.900 15.532,114.679 15.981,114.287 15.987 C 113.896 15.994,113.478 16.252,113.360 16.561 C 113.241 16.869,112.545 17.234,111.812 17.371 C 111.080 17.509,110.270 17.875,110.013 18.185 C 109.755 18.495,109.005 18.867,108.345 19.012 C 107.686 19.157,107.056 19.511,106.945 19.798 C 106.835 20.086,106.118 20.439,105.351 20.583 C 104.585 20.727,103.864 21.088,103.750 21.386 C 103.636 21.684,103.061 22.049,102.473 22.196 C 101.885 22.344,100.653 23.080,99.735 23.832 C 98.816 24.585,97.781 25.200,97.433 25.200 C 97.085 25.200,96.440 25.560,96.000 26.000 C 95.560 26.440,94.925 26.800,94.588 26.800 C 94.252 26.800,93.066 27.520,91.952 28.400 C 90.839 29.280,89.707 30.000,89.436 30.000 C 89.166 30.000,88.327 30.561,87.572 31.247 C 86.817 31.934,85.660 32.732,85.000 33.021 C 84.340 33.311,83.218 34.086,82.507 34.745 C 81.796 35.403,80.806 36.067,80.307 36.221 C 79.808 36.375,79.130 36.754,78.800 37.062 C 78.470 37.370,77.348 38.427,76.306 39.411 C 75.264 40.395,74.179 41.200,73.895 41.200 C 73.610 41.200,73.079 41.515,72.714 41.900 C 72.349 42.285,71.575 42.960,70.993 43.400 C 70.412 43.840,68.497 45.595,66.738 47.300 C 64.979 49.005,63.378 50.400,63.180 50.400 C 62.693 50.400,52.000 60.979,52.000 61.461 C 52.000 61.671,50.560 63.321,48.800 65.126 C 47.040 66.932,45.600 68.587,45.600 68.805 C 45.600 69.022,45.330 69.200,45.000 69.200 C 44.670 69.200,44.400 69.354,44.400 69.542 C 44.400 69.729,43.950 70.369,43.400 70.962 C 42.850 71.556,42.400 72.210,42.400 72.416 C 42.400 72.872,41.493 74.024,39.500 76.101 C 38.675 76.960,38.000 77.801,38.000 77.970 C 38.000 78.138,37.640 78.602,37.200 79.000 C 36.760 79.398,36.400 79.936,36.400 80.194 C 36.400 80.453,35.689 81.458,34.819 82.428 C 33.950 83.399,33.136 84.599,33.011 85.097 C 32.887 85.594,32.158 86.647,31.392 87.435 C 30.626 88.224,30.000 89.185,30.000 89.572 C 30.000 89.959,29.640 90.602,29.200 91.000 C 28.760 91.398,28.400 91.876,28.400 92.062 C 28.400 92.248,28.040 92.760,27.600 93.200 C 27.160 93.640,26.800 94.270,26.800 94.600 C 26.800 94.930,26.440 95.560,26.000 96.000 C 25.560 96.440,25.200 97.231,25.200 97.757 C 25.200 98.284,24.957 98.808,24.661 98.921 C 24.364 99.035,23.624 100.089,23.016 101.264 C 22.408 102.439,21.675 103.670,21.386 104.000 C 21.098 104.330,20.739 105.095,20.588 105.700 C 20.437 106.305,20.160 106.800,19.973 106.800 C 19.785 106.800,19.416 107.520,19.153 108.400 C 18.889 109.280,18.536 110.000,18.368 110.000 C 18.200 110.000,17.845 110.675,17.580 111.500 C 17.316 112.325,16.860 113.275,16.568 113.610 C 16.277 113.946,15.918 114.970,15.772 115.886 C 15.625 116.801,15.274 117.640,14.991 117.748 C 14.707 117.857,14.347 118.533,14.189 119.250 C 14.031 119.968,13.654 120.803,13.351 121.106 C 13.048 121.409,12.800 121.964,12.800 122.340 C 12.800 122.715,12.536 123.399,12.213 123.860 C 11.890 124.321,11.436 125.548,11.203 126.588 C 10.970 127.627,10.514 128.743,10.190 129.068 C 9.865 129.392,9.600 130.291,9.600 131.065 C 9.600 131.868,9.256 132.911,8.800 133.491 C 8.313 134.109,8.000 135.114,8.000 136.054 C 8.000 137.067,7.724 137.876,7.200 138.400 C 6.658 138.942,6.400 139.733,6.400 140.856 C 6.400 141.902,6.168 142.682,5.770 142.973 C 5.358 143.274,5.062 144.331,4.918 146.017 C 4.791 147.497,4.430 148.905,4.073 149.315 C 3.706 149.735,3.379 151.054,3.279 152.515 C 3.179 153.974,2.852 155.291,2.488 155.705 C 2.075 156.174,1.807 157.511,1.687 159.705 C 1.562 161.977,1.303 163.230,0.853 163.742 C -0.433 165.203,-0.318 233.625,0.973 234.915 C 1.271 235.214,1.567 236.811,1.677 238.710 C 1.803 240.878,2.078 242.229,2.488 242.695 C 2.852 243.109,3.179 244.426,3.279 245.885 C 3.379 247.346,3.706 248.665,4.073 249.085 C 4.430 249.495,4.791 250.903,4.918 252.383 C 5.062 254.069,5.358 255.126,5.770 255.427 C 6.168 255.718,6.400 256.498,6.400 257.544 C 6.400 258.667,6.658 259.458,7.200 260.000 C 7.724 260.524,8.000 261.333,8.000 262.346 C 8.000 263.286,8.313 264.291,8.800 264.909 C 9.256 265.489,9.600 266.532,9.600 267.335 C 9.600 268.109,9.865 269.008,10.190 269.332 C 10.514 269.657,10.970 270.773,11.203 271.812 C 11.436 272.852,11.890 274.079,12.213 274.540 C 12.536 275.001,12.800 275.685,12.800 276.060 C 12.800 276.436,13.048 276.991,13.351 277.294 C 13.654 277.597,14.031 278.432,14.189 279.150 C 14.347 279.867,14.710 280.544,14.996 280.654 C 15.283 280.764,15.635 281.637,15.778 282.594 C 15.922 283.551,16.296 284.547,16.609 284.807 C 16.922 285.068,17.296 285.907,17.440 286.672 C 17.584 287.438,17.943 288.157,18.240 288.271 C 18.536 288.384,18.896 289.104,19.040 289.871 C 19.183 290.637,19.532 291.353,19.814 291.461 C 20.097 291.569,20.448 292.140,20.595 292.729 C 20.742 293.318,21.098 294.070,21.386 294.400 C 21.675 294.730,22.408 295.961,23.016 297.136 C 23.624 298.311,24.364 299.365,24.661 299.479 C 24.957 299.592,25.200 300.116,25.200 300.643 C 25.200 301.169,25.560 301.960,26.000 302.400 C 26.440 302.840,26.800 303.437,26.800 303.728 C 26.800 304.018,27.520 305.221,28.400 306.400 C 29.280 307.579,30.000 308.750,30.000 309.000 C 30.000 309.251,30.561 310.073,31.247 310.828 C 31.934 311.583,32.734 312.740,33.026 313.400 C 33.318 314.060,34.196 315.308,34.978 316.173 C 35.760 317.038,36.400 317.955,36.400 318.211 C 36.400 318.467,36.760 319.002,37.200 319.400 C 37.640 319.798,38.000 320.270,38.000 320.449 C 38.000 320.627,38.630 321.404,39.401 322.174 C 40.171 322.945,41.296 324.352,41.901 325.302 C 43.242 327.408,43.298 327.474,47.935 332.307 C 49.989 334.448,51.928 336.695,52.245 337.300 C 52.561 337.905,52.951 338.404,53.110 338.409 C 53.270 338.415,53.930 339.135,54.577 340.009 C 55.224 340.884,55.989 341.600,56.277 341.600 C 56.565 341.600,56.800 341.876,56.800 342.213 C 56.800 342.549,57.052 342.922,57.360 343.040 C 57.668 343.158,59.049 344.323,60.429 345.627 C 61.809 346.932,63.082 348.000,63.259 348.000 C 63.436 348.000,65.018 349.440,66.776 351.200 C 68.533 352.960,70.115 354.400,70.290 354.400 C 70.464 354.400,70.832 354.760,71.107 355.200 C 71.382 355.640,71.856 356.000,72.161 356.000 C 72.465 356.000,72.818 356.270,72.945 356.600 C 73.071 356.930,73.422 357.200,73.724 357.200 C 74.195 357.200,75.085 357.927,78.800 361.346 C 79.130 361.650,79.832 362.032,80.359 362.195 C 80.886 362.358,81.925 363.098,82.667 363.840 C 83.408 364.582,84.452 365.298,84.985 365.432 C 85.519 365.566,86.586 366.288,87.358 367.038 C 88.129 367.787,89.023 368.400,89.344 368.400 C 89.665 368.400,90.839 369.120,91.952 370.000 C 93.066 370.880,94.298 371.600,94.692 371.600 C 95.086 371.600,95.632 371.960,95.907 372.400 C 96.185 372.845,96.840 373.200,97.384 373.200 C 97.921 373.200,98.504 373.425,98.680 373.700 C 99.177 374.477,101.410 375.937,102.531 376.218 C 103.087 376.358,103.636 376.716,103.750 377.014 C 103.864 377.312,104.585 377.673,105.351 377.817 C 106.118 377.961,106.835 378.314,106.945 378.602 C 107.056 378.889,107.686 379.243,108.345 379.388 C 109.005 379.533,109.750 379.898,110.000 380.200 C 110.250 380.502,110.970 380.862,111.600 381.000 C 112.230 381.138,112.944 381.491,113.187 381.784 C 113.430 382.077,114.234 382.430,114.974 382.569 C 115.714 382.708,116.532 383.078,116.793 383.391 C 117.053 383.704,118.049 384.078,119.006 384.222 C 119.963 384.365,120.836 384.717,120.946 385.004 C 121.056 385.290,121.743 385.652,122.473 385.807 C 123.203 385.962,124.070 386.319,124.400 386.601 C 124.730 386.883,125.755 387.237,126.677 387.388 C 127.599 387.539,128.566 387.918,128.826 388.231 C 129.086 388.544,129.733 388.800,130.265 388.800 C 130.797 388.800,131.938 389.160,132.800 389.600 C 133.662 390.040,134.821 390.400,135.374 390.400 C 135.928 390.400,136.970 390.759,137.690 391.199 C 138.411 391.638,139.692 391.998,140.537 391.999 C 141.466 391.999,142.476 392.316,143.091 392.800 C 143.791 393.351,144.714 393.600,146.054 393.600 C 147.124 393.600,148.000 393.762,148.000 393.961 C 148.000 394.569,150.401 395.200,152.716 395.200 C 154.340 395.200,155.044 395.381,155.420 395.895 C 155.815 396.436,156.672 396.623,159.264 396.736 C 161.616 396.838,162.816 397.073,163.332 397.531 C 163.882 398.020,165.124 398.221,168.320 398.340 C 171.366 398.452,172.859 398.683,173.571 399.149 C 175.086 400.141,221.714 400.141,223.229 399.149 C 223.941 398.683,225.434 398.452,228.480 398.340 C 231.676 398.221,232.918 398.020,233.468 397.531 C 233.984 397.073,235.184 396.838,237.536 396.736 C 240.128 396.623,240.985 396.436,241.380 395.895 C 241.756 395.381,242.460 395.200,244.084 395.200 C 246.322 395.200,248.800 394.574,248.800 394.009 C 248.800 393.837,249.900 393.617,251.244 393.519 C 252.985 393.393,253.797 393.149,254.064 392.671 C 254.322 392.210,254.964 392.000,256.120 391.999 C 257.093 391.998,258.351 391.661,259.110 391.199 C 259.830 390.759,260.872 390.400,261.426 390.400 C 261.979 390.400,263.138 390.040,264.000 389.600 C 264.862 389.160,266.003 388.800,266.535 388.800 C 267.067 388.800,267.714 388.544,267.974 388.231 C 268.234 387.918,269.201 387.539,270.123 387.388 C 271.045 387.237,272.070 386.883,272.400 386.601 C 272.730 386.319,273.584 385.965,274.298 385.813 C 275.011 385.662,275.731 385.309,275.898 385.029 C 276.064 384.750,276.897 384.412,277.750 384.278 C 278.602 384.144,279.592 383.777,279.950 383.462 C 280.307 383.147,281.173 382.767,281.872 382.619 C 282.572 382.470,283.350 382.102,283.600 381.800 C 283.850 381.498,284.570 381.138,285.200 381.000 C 285.830 380.862,286.559 380.490,286.821 380.174 C 287.083 379.858,287.612 379.600,287.995 379.600 C 288.378 379.600,289.136 379.251,289.678 378.825 C 290.220 378.398,291.158 377.925,291.764 377.773 C 292.369 377.621,292.953 377.266,293.061 376.985 C 293.169 376.703,293.713 376.358,294.269 376.218 C 295.390 375.937,297.623 374.477,298.120 373.700 C 298.296 373.425,298.853 373.200,299.358 373.200 C 299.863 373.200,300.602 372.840,301.000 372.400 C 301.398 371.960,302.023 371.600,302.389 371.600 C 302.755 371.600,303.762 370.965,304.627 370.189 C 305.492 369.414,306.650 368.665,307.200 368.527 C 307.750 368.388,308.812 367.686,309.559 366.966 C 310.306 366.246,311.375 365.543,311.933 365.402 C 312.491 365.262,313.585 364.529,314.364 363.772 C 315.143 363.016,316.144 362.285,316.590 362.148 C 317.466 361.878,317.717 361.682,320.332 359.226 C 321.284 358.332,322.213 357.600,322.396 357.600 C 322.920 357.600,326.691 354.512,329.362 351.895 C 330.703 350.581,333.150 348.403,334.800 347.055 C 338.359 344.148,343.200 339.398,343.200 338.814 C 343.200 338.586,343.353 338.400,343.541 338.400 C 343.729 338.400,344.698 337.365,345.695 336.100 C 347.249 334.129,350.752 330.265,353.596 327.386 C 354.038 326.938,354.400 326.436,354.400 326.270 C 354.400 325.818,356.049 323.610,357.298 322.390 C 358.476 321.239,360.400 318.557,360.400 318.066 C 360.400 317.902,361.120 316.972,362.000 316.000 C 362.880 315.028,363.600 314.015,363.600 313.750 C 363.600 313.260,364.829 311.648,366.100 310.471 C 366.485 310.114,366.800 309.518,366.800 309.147 C 366.800 308.776,367.520 307.561,368.400 306.448 C 369.280 305.334,370.000 304.176,370.000 303.874 C 370.000 303.571,370.360 302.998,370.800 302.600 C 371.240 302.202,371.600 301.448,371.600 300.925 C 371.600 300.403,371.857 299.876,372.172 299.755 C 372.487 299.635,372.944 299.055,373.188 298.468 C 373.432 297.881,374.070 296.680,374.606 295.800 C 375.687 294.026,376.400 292.522,376.400 292.017 C 376.400 291.835,376.660 291.586,376.978 291.464 C 377.296 291.342,377.673 290.615,377.817 289.849 C 377.961 289.082,378.305 288.368,378.582 288.262 C 378.860 288.156,379.204 287.480,379.348 286.761 C 379.492 286.041,379.885 285.148,380.222 284.776 C 380.559 284.404,380.945 283.419,381.080 282.587 C 381.215 281.755,381.657 280.743,382.062 280.338 C 382.468 279.932,382.800 279.169,382.800 278.643 C 382.800 278.116,383.070 277.582,383.400 277.455 C 383.730 277.329,384.000 276.902,384.000 276.507 C 384.000 276.111,384.336 275.161,384.747 274.394 C 385.157 273.627,385.627 272.370,385.791 271.600 C 385.955 270.830,386.319 269.930,386.601 269.600 C 386.883 269.270,387.242 268.190,387.400 267.200 C 387.558 266.210,387.915 265.130,388.195 264.800 C 388.474 264.470,388.823 263.360,388.971 262.333 C 389.118 261.306,389.500 260.249,389.820 259.984 C 390.152 259.708,390.400 258.810,390.400 257.883 C 390.400 256.924,390.676 255.958,391.076 255.517 C 391.499 255.048,391.818 253.846,391.931 252.289 C 392.048 250.671,392.327 249.649,392.733 249.352 C 393.156 249.043,393.412 248.017,393.531 246.154 C 393.648 244.305,393.906 243.264,394.321 242.961 C 394.768 242.634,394.989 241.532,395.124 238.959 C 395.260 236.372,395.479 235.284,395.932 234.953 C 396.418 234.598,396.589 233.423,396.721 229.550 C 396.851 225.705,397.035 224.434,397.544 223.858 C 398.136 223.188,398.200 220.794,398.200 199.200 C 398.200 177.606,398.136 175.212,397.544 174.542 C 397.035 173.966,396.851 172.695,396.721 168.850 C 396.588 164.946,396.420 163.804,395.923 163.440 C 395.464 163.105,395.253 162.098,395.145 159.731 C 395.037 157.354,394.810 156.274,394.299 155.709 C 393.811 155.170,393.600 154.269,393.600 152.722 C 393.600 151.168,393.377 150.224,392.853 149.554 C 392.367 148.933,392.042 147.708,391.924 146.046 C 391.797 144.276,391.535 143.342,391.071 143.002 C 390.614 142.669,390.400 141.934,390.400 140.705 C 390.400 139.614,390.170 138.707,389.820 138.416 C 389.500 138.151,389.118 137.094,388.971 136.067 C 388.823 135.040,388.474 133.930,388.195 133.600 C 387.915 133.270,387.558 132.190,387.400 131.200 C 387.242 130.210,386.883 129.130,386.601 128.800 C 386.319 128.470,385.955 127.570,385.791 126.800 C 385.627 126.030,385.157 124.773,384.747 124.006 C 384.336 123.239,384.000 122.289,384.000 121.893 C 384.000 121.498,383.730 121.071,383.400 120.945 C 383.070 120.818,382.800 120.284,382.800 119.757 C 382.800 119.231,382.468 118.468,382.062 118.062 C 381.657 117.657,381.215 116.645,381.080 115.813 C 380.945 114.981,380.559 113.996,380.222 113.624 C 379.885 113.252,379.492 112.359,379.348 111.639 C 379.204 110.920,378.847 110.239,378.554 110.127 C 378.261 110.015,377.904 109.296,377.760 108.529 C 377.617 107.763,377.263 107.045,376.974 106.935 C 376.685 106.824,376.334 106.210,376.194 105.571 C 376.053 104.932,375.754 104.295,375.528 104.156 C 375.303 104.016,374.856 103.339,374.535 102.651 C 373.670 100.795,373.008 99.692,372.264 98.871 C 371.899 98.467,371.600 97.774,371.600 97.330 C 371.600 96.887,371.240 96.198,370.800 95.800 C 370.360 95.402,370.000 94.866,370.000 94.610 C 370.000 94.354,369.280 93.179,368.400 92.000 C 367.520 90.821,366.800 89.650,366.800 89.400 C 366.800 89.149,366.239 88.327,365.553 87.572 C 364.866 86.817,364.066 85.660,363.774 85.000 C 363.482 84.340,362.604 83.092,361.822 82.227 C 361.040 81.362,360.400 80.500,360.400 80.311 C 360.400 79.802,358.820 77.693,356.966 75.727 C 356.068 74.775,355.086 73.501,354.785 72.898 C 354.156 71.637,354.080 71.549,348.998 66.208 C 346.909 64.012,345.200 62.063,345.200 61.876 C 345.200 61.690,344.390 60.727,343.400 59.737 C 342.410 58.747,341.600 57.845,341.600 57.733 C 341.600 57.361,337.868 53.894,334.528 51.164 C 332.718 49.685,330.254 47.467,329.053 46.237 C 327.852 45.007,326.774 44.000,326.657 44.000 C 326.540 44.000,325.760 43.371,324.922 42.602 C 324.085 41.833,323.201 41.203,322.958 41.202 C 322.715 41.201,321.635 40.380,320.558 39.379 C 317.576 36.605,317.469 36.523,316.425 36.200 C 315.889 36.034,314.890 35.304,314.204 34.577 C 313.518 33.850,312.482 33.135,311.901 32.990 C 311.320 32.844,310.244 32.141,309.509 31.427 C 308.775 30.714,307.730 30.016,307.187 29.876 C 306.644 29.736,305.492 28.986,304.627 28.211 C 303.762 27.435,302.681 26.800,302.224 26.800 C 301.766 26.800,301.168 26.440,300.893 26.000 C 300.615 25.555,299.960 25.200,299.416 25.200 C 298.879 25.200,298.296 24.975,298.120 24.700 C 297.623 23.923,295.390 22.463,294.269 22.182 C 293.713 22.042,293.167 21.691,293.056 21.402 C 292.945 21.112,292.314 20.757,291.655 20.612 C 290.995 20.467,290.250 20.102,290.000 19.800 C 289.750 19.498,289.030 19.138,288.400 19.000 C 287.770 18.862,287.050 18.502,286.800 18.200 C 286.550 17.898,285.830 17.538,285.200 17.400 C 284.570 17.262,283.841 16.890,283.579 16.574 C 283.317 16.258,282.809 15.994,282.451 15.987 C 282.093 15.981,280.900 15.532,279.800 14.991 C 278.700 14.450,277.414 14.006,276.943 14.004 C 276.471 14.002,275.992 13.756,275.877 13.457 C 275.763 13.158,275.080 12.796,274.361 12.652 C 273.641 12.508,272.771 12.147,272.426 11.849 C 272.082 11.552,271.103 11.202,270.250 11.071 C 269.398 10.941,268.394 10.557,268.019 10.217 C 267.644 9.878,266.861 9.600,266.278 9.600 C 265.696 9.600,264.630 9.241,263.910 8.801 C 263.189 8.362,262.109 8.002,261.510 8.001 C 260.910 8.001,259.830 7.641,259.110 7.201 C 258.351 6.739,257.093 6.402,256.120 6.401 C 254.972 6.400,254.322 6.190,254.069 5.737 C 253.811 5.277,252.980 5.018,251.349 4.890 C 250.000 4.784,248.690 4.432,248.271 4.064 C 247.796 3.647,246.542 3.366,244.678 3.261 C 242.646 3.146,241.678 2.912,241.343 2.454 C 240.992 1.974,240.020 1.772,237.536 1.664 C 235.163 1.561,233.986 1.329,233.458 0.860 C 232.740 0.221,168.029 -0.320,164.800 0.285 M277.520 96.880 C 278.341 97.701,278.198 141.745,277.371 142.571 C 276.530 143.413,192.060 143.532,190.452 142.694 C 189.563 142.231,187.776 139.557,184.908 134.400 C 184.235 133.190,179.325 124.640,173.997 115.400 C 163.285 96.826,163.825 97.833,164.145 97.000 C 164.454 96.195,276.716 96.076,277.520 96.880 M277.339 154.349 C 278.094 154.976,278.327 236.156,277.586 240.200 C 277.384 241.300,277.043 243.550,276.827 245.200 C 271.610 285.179,226.766 311.154,179.400 301.631 C 173.960 300.537,171.333 299.749,164.162 297.061 C 151.685 292.383,138.300 281.007,131.462 269.267 C 127.500 262.466,123.218 250.296,123.204 245.800 C 123.202 245.140,122.930 243.189,122.600 241.465 C 121.695 236.735,121.719 207.938,122.629 207.029 C 123.473 206.185,169.808 206.061,170.896 206.900 C 171.468 207.341,171.565 209.204,171.719 222.800 C 171.932 241.517,172.381 243.301,178.359 249.211 C 190.374 261.088,214.610 258.716,221.388 244.999 C 224.083 239.544,223.977 241.523,224.011 196.202 C 224.042 155.933,224.057 155.143,224.830 154.370 C 225.855 153.345,276.105 153.325,277.339 154.349 " stroke="none" fill="#040c13" fill-rule="evenodd"></path></g></svg>